<svg xmlns="http://www.w3.org/2000/svg" width="28.007" height="28" viewBox="0 0 28.007 28">
  <path id="Path_989" data-name="Path 989" d="M22.4-11.6a2.8,2.8,0,0,0-2.786,2.8A2.8,2.8,0,0,0,22.4-6a2.808,2.808,0,0,0,2.8-2.8A2.808,2.808,0,0,0,22.4-11.6ZM14-34v2.8h2.8l5.039,10.626-1.89,3.416A2.805,2.805,0,0,0,22.4-13H39.2v-2.8H22.4l1.54-2.8H34.368a2.786,2.786,0,0,0,2.45-1.442l5.011-9.086A1.4,1.4,0,0,0,40.611-31.2H19.893L18.578-34ZM36.4-11.6a2.8,2.8,0,0,0-2.786,2.8A2.8,2.8,0,0,0,36.4-6a2.808,2.808,0,0,0,2.8-2.8A2.808,2.808,0,0,0,36.4-11.6Z" transform="translate(-14 34)" fill="#707070"/>
</svg>
